<svg width="362" height="362" viewBox="0 0 362 362" fill="none" xmlns="http://www.w3.org/2000/svg">
<g clip-path="url(#clip0)">
<g clip-path="url(#clip1)">
<path d="M307.749 117.208C311.777 102.409 267.676 77.5209 209.247 61.6194C150.818 45.7178 100.187 44.8242 96.1592 59.6235C92.1315 74.4227 136.232 99.3107 194.661 115.212C253.09 131.114 303.721 132.007 307.749 117.208Z" fill="#AECEFC"/>
<path d="M209.232 61.6134C255.752 74.2733 293.163 92.6207 304.46 107.046C298.096 89.5808 260.175 67.5168 211.252 54.2097C162.329 40.9027 118.455 40.7066 104.119 52.5427C121.162 45.8254 162.711 48.9634 209.232 61.6134Z" fill="#F0F5FF"/>
<path d="M211.252 54.2098C228.236 58.8285 243.897 64.5161 257.37 70.6843C252.497 58.8678 236.297 47.0709 215.184 41.3244C194.179 35.6074 174.322 37.5196 164.084 45.1488C178.587 46.6786 194.62 49.6793 211.252 54.2098Z" fill="#C8EDEB"/>
<path d="M149.878 64.2319C150.162 62.1774 147.875 60.1631 144.769 59.7328C141.663 59.3026 138.915 60.6194 138.63 62.6739C138.345 64.7285 140.633 66.7428 143.739 67.173C146.845 67.6033 149.593 66.2865 149.878 64.2319Z" fill="#FFE3B2"/>
<path d="M192.947 68.4649C193.479 66.5104 191.245 64.2009 187.958 63.3063C184.671 62.4118 181.576 63.2709 181.044 65.2254C180.512 67.1798 182.745 69.4893 186.032 70.3839C189.319 71.2785 192.415 70.4193 192.947 68.4649Z" fill="#FFE3B2"/>
<path d="M271.117 100.929C272.009 99.0566 270.438 96.4449 267.607 95.0956C264.777 93.7463 261.759 94.1703 260.866 96.0428C259.973 97.9152 261.545 100.527 264.375 101.876C267.206 103.226 270.224 102.802 271.117 100.929Z" fill="#FFE3B2"/>
<path d="M234.288 79.7548C234.919 77.8302 232.807 75.4097 229.57 74.3486C226.333 73.2874 223.197 73.9874 222.566 75.9121C221.935 77.8367 224.048 80.2572 227.285 81.3183C230.522 82.3795 233.657 81.6795 234.288 79.7548Z" fill="#FFE3B2"/>
<path opacity="0.9" d="M252.173 305.435C252.173 305.367 252.183 305.298 252.183 305.23L252.163 305.21L248.927 106.987L154.013 81.1572L16 305.23C16 319.517 60.991 331.089 135.518 331.089C208.222 331.089 249.221 320.066 252.075 306.269L252.193 306.289L252.173 305.435Z" fill="url(#paint0_linear)"/>
<path d="M144.736 137.131L128.134 157.312L131.253 159.872C133.086 161.382 133.351 164.088 131.841 165.922L131.782 166.001C130.272 167.834 127.565 168.099 125.732 166.589L122.613 164.03L117.985 169.658C116.475 171.492 113.768 171.757 111.934 170.247L111.022 169.492C109.189 167.981 108.924 165.275 110.434 163.441L115.063 157.812L100.196 145.584C98.3626 144.074 98.0978 141.367 99.6079 139.534C100.226 138.788 101.079 138.269 102.02 138.063L140.117 129.874C141.402 129.6 142.736 129.923 143.746 130.757L144.138 131.081C145.982 132.591 146.246 135.297 144.736 137.131ZM120.583 151.095L128.134 141.916L113.258 145.064L120.583 151.095Z" fill="#AECEFC"/>
<path d="M227.03 156.724L236.297 174.621L239.062 173.189C240.69 172.346 242.691 172.983 243.534 174.611L243.573 174.679C244.417 176.307 243.779 178.308 242.151 179.151L239.386 180.583L241.975 185.574C242.818 187.202 242.181 189.202 240.553 190.046L239.739 190.467C238.111 191.311 236.111 190.673 235.267 189.046L232.678 184.054L219.489 190.879C217.861 191.723 215.861 191.085 215.017 189.457C214.674 188.791 214.566 188.035 214.704 187.3L220.48 157.803C220.676 156.812 221.313 155.959 222.205 155.498L222.549 155.322C224.186 154.459 226.187 155.096 227.03 156.724ZM229.589 178.092L225.373 169.953L223.078 181.455L229.589 178.092Z" fill="#AECEFC"/>
<path d="M204.025 124.148C213.439 129.718 211.909 140.24 205.721 150.703C199.533 161.176 191.051 167.589 181.637 162.029C172.223 156.459 173.753 145.937 179.941 135.474C186.128 125.001 194.611 118.588 204.025 124.148ZM200.298 130.463C196.033 127.943 191.149 132.728 187.05 139.671C182.941 146.614 181.117 153.204 185.373 155.714C189.639 158.234 194.522 153.449 198.621 146.506C202.72 139.563 204.554 132.983 200.298 130.463Z" fill="#AECEFC"/>
<path d="M185.334 285.205C182.696 290.756 187.07 297.414 190.698 299.905C191.659 300.562 191.247 302.072 190.09 302.141C172.596 303.2 138.941 297.816 114.68 276.439C106.041 268.829 86.9677 267.897 88.321 259.425C92.2631 234.782 139.921 179.798 163.231 180.955C169.369 181.259 176.342 181.887 186.197 194.478C197.229 208.58 214.39 241.597 218.067 269.251C219.489 279.92 188.894 277.704 185.334 285.205Z" fill="#AECEFC"/>
<path d="M141.667 285.784L139.451 305.652C139.451 305.652 135.489 308.064 135.087 311.673C134.871 313.575 136.244 315.124 138.146 315.124H143.157C145.707 315.124 148.002 313.055 148.286 310.506L150.836 287.638" fill="#FFE3E2"/>
<path d="M160.25 287.51L158.23 305.652C158.23 305.652 161.652 308.064 161.25 311.673C161.034 313.575 159.318 315.125 157.416 315.125H152.405C149.855 315.125 148.021 313.055 148.306 310.506L150.855 287.638" fill="#FFE3E2"/>
<path d="M159.681 315.115H154.474C154.474 315.115 154.905 309.849 160.75 308.731C160.632 306.485 158.583 305.593 158.583 305.593C158.583 305.593 151.032 306.691 150.1 315.105H148.963C148.315 315.105 147.727 315.634 147.658 316.282C147.727 315.634 147.266 315.105 146.609 315.105H145.472C146.413 306.691 139.107 305.593 139.107 305.593C139.107 305.593 136.852 306.475 136.234 308.731C141.834 309.839 141.088 315.115 141.088 315.115H135.881C135.234 315.115 134.646 315.644 134.577 316.291L134.557 316.478C134.489 317.125 134.95 317.654 135.607 317.654H146.335C146.982 317.654 147.57 317.125 147.639 316.478C147.57 317.125 148.031 317.654 148.688 317.654H159.416C160.063 317.654 160.652 317.125 160.72 316.478L160.74 316.291C160.799 315.644 160.328 315.115 159.681 315.115Z" fill="#AECEFC"/>
<path d="M177.734 226.966L175.92 229.271C175.479 229.829 174.832 230.183 174.184 230.222L171.556 230.349C169.938 230.428 168.752 232.379 169.546 233.654L170.831 235.723C171.144 236.233 171.164 236.91 170.87 237.547L169.683 240.155C168.958 241.764 170.223 243.176 171.821 242.548L174.429 241.528C175.067 241.283 175.724 241.342 176.185 241.705L178.077 243.195C179.244 244.107 181.215 243.029 181.411 241.371L181.735 238.675C181.814 238.018 182.206 237.37 182.784 236.959L185.138 235.262C186.589 234.223 186.54 232.144 185.059 231.742L182.647 231.094C182.059 230.938 181.647 230.477 181.539 229.849L181.098 227.319C180.853 225.75 178.852 225.544 177.734 226.966Z" fill="#FFE3B2"/>
<path d="M173.968 212.071C173.155 211.894 172.272 212.227 171.34 212.58C170.487 212.904 169.595 213.237 168.82 213.13C168.173 213.041 167.506 212.541 166.81 212.012C165.996 211.394 165.163 210.766 164.201 210.668C163.28 210.57 162.358 211.021 161.466 211.453C160.652 211.845 159.877 212.218 159.191 212.169C158.445 212.11 157.671 211.59 156.925 211.09C156.131 210.551 155.317 210.001 154.454 209.952C153.395 209.913 152.385 210.433 151.483 210.913C150.757 211.306 150.041 211.668 149.502 211.649C148.109 211.6 147.609 211.129 147.09 210.629C146.57 210.139 146.031 209.639 144.795 209.59C145.207 207.452 144.383 205.638 144.363 205.608C144.275 205.422 144.05 205.343 143.863 205.432C143.677 205.52 143.599 205.746 143.687 205.932C143.765 206.099 145.579 210.109 141.716 212.953C141.549 213.071 141.51 213.306 141.637 213.473C141.706 213.571 141.824 213.63 141.941 213.63C142.02 213.63 142.098 213.61 142.167 213.561C143.52 212.561 144.246 211.423 144.609 210.325C144.628 210.335 144.658 210.345 144.677 210.345C145.697 210.364 146.08 210.727 146.57 211.188C147.148 211.727 147.796 212.345 149.473 212.404C150.247 212.433 151.012 212.021 151.836 211.58C152.689 211.129 153.572 210.649 154.415 210.707C155.072 210.747 155.768 211.217 156.504 211.717C157.327 212.276 158.18 212.855 159.132 212.924C160.014 212.992 160.916 212.551 161.789 212.139C162.632 211.737 163.427 211.355 164.133 211.423C164.878 211.492 165.633 212.071 166.359 212.62C167.104 213.188 167.879 213.767 168.722 213.885C168.859 213.904 168.997 213.914 169.134 213.914C169.968 213.914 170.801 213.6 171.605 213.296C172.429 212.982 173.213 212.688 173.812 212.816C174.018 212.855 174.214 212.728 174.253 212.531C174.302 212.306 174.174 212.11 173.968 212.071Z" fill="#3770E2"/>
<path d="M151.806 206.628C151.875 206.628 151.953 206.609 152.022 206.56L153.777 205.344L154.65 206.481C154.719 206.579 154.837 206.628 154.944 206.628C155.023 206.628 155.101 206.599 155.17 206.55C155.337 206.422 155.366 206.187 155.239 206.03L154.385 204.922L156.111 203.726C156.278 203.608 156.327 203.373 156.209 203.206C156.092 203.039 155.856 203 155.69 203.108L153.934 204.324L153.062 203.186C152.934 203.02 152.699 202.99 152.542 203.118C152.375 203.245 152.346 203.48 152.473 203.637L153.326 204.745L151.6 205.942C151.434 206.059 151.385 206.295 151.502 206.462C151.571 206.569 151.689 206.628 151.806 206.628Z" fill="#3770E2"/>
<path d="M168.124 206.628C168.193 206.628 168.271 206.609 168.34 206.56L170.095 205.344L170.968 206.481C171.036 206.579 171.154 206.628 171.262 206.628C171.34 206.628 171.419 206.599 171.488 206.55C171.654 206.422 171.684 206.187 171.556 206.03L170.703 204.922L172.429 203.726C172.596 203.608 172.645 203.373 172.527 203.206C172.409 203.039 172.174 203 172.007 203.108L170.252 204.324L169.379 203.186C169.252 203.02 169.016 202.99 168.859 203.118C168.693 203.245 168.663 203.48 168.791 203.637L169.644 204.745L167.918 205.942C167.751 206.059 167.702 206.295 167.82 206.462C167.889 206.569 168.006 206.628 168.124 206.628Z" fill="#3770E2"/>
<path d="M148.678 307.475C148.669 307.475 148.649 307.475 148.639 307.475C148.433 307.456 148.286 307.27 148.306 307.064L150.453 287.853C150.473 287.647 150.659 287.5 150.865 287.52C151.071 287.539 151.218 287.726 151.199 287.932L149.051 307.142C149.022 307.338 148.865 307.475 148.678 307.475Z" fill="#D38989"/>
<path d="M153.307 288.03C152.62 288.03 151.924 288.01 151.218 287.981C142.657 287.559 136.028 284.107 131.978 281.283C131.812 281.165 131.772 280.93 131.89 280.763C132.008 280.597 132.243 280.548 132.41 280.675C136.381 283.44 142.883 286.833 151.267 287.235C159.367 287.628 165.947 285.608 170.036 283.833C170.223 283.754 170.448 283.833 170.527 284.029C170.605 284.215 170.527 284.441 170.33 284.519C166.516 286.167 160.603 288.03 153.307 288.03Z" fill="#3770E2"/>
<g opacity="0.5">
<path opacity="0.5" d="M62.6482 292.109C64.977 292.109 66.8649 290.221 66.8649 287.892C66.8649 285.563 64.977 283.675 62.6482 283.675C60.3194 283.675 58.4315 285.563 58.4315 287.892C58.4315 290.221 60.3194 292.109 62.6482 292.109Z" fill="#91BBFF"/>
<path opacity="0.5" d="M215.949 293.609C217.633 293.609 218.999 292.243 218.999 290.559C218.999 288.875 217.633 287.509 215.949 287.509C214.265 287.509 212.899 288.875 212.899 290.559C212.899 292.243 214.265 293.609 215.949 293.609Z" fill="#91BBFF"/>
<path opacity="0.5" d="M129.791 184.348C131.378 184.348 132.665 183.062 132.665 181.475C132.665 179.888 131.378 178.602 129.791 178.602C128.205 178.602 126.918 179.888 126.918 181.475C126.918 183.062 128.205 184.348 129.791 184.348Z" fill="#91BBFF"/>
<path opacity="0.5" d="M221.842 216.101C224.453 216.101 226.569 213.984 226.569 211.374C226.569 208.764 224.453 206.647 221.842 206.647C219.232 206.647 217.116 208.764 217.116 211.374C217.116 213.984 219.232 216.101 221.842 216.101Z" fill="#91BBFF"/>
<path opacity="0.5" d="M167.712 143.083C169.136 143.083 170.291 141.929 170.291 140.504C170.291 139.08 169.136 137.925 167.712 137.925C166.288 137.925 165.133 139.08 165.133 140.504C165.133 141.929 166.288 143.083 167.712 143.083Z" fill="#91BBFF"/>
<path opacity="0.5" d="M223.48 142.995C225.365 142.995 226.893 141.467 226.893 139.582C226.893 137.698 225.365 136.17 223.48 136.17C221.595 136.17 220.068 137.698 220.068 139.582C220.068 141.467 221.595 142.995 223.48 142.995Z" fill="#91BBFF"/>
<path opacity="0.5" d="M161.152 128.237C163.361 128.237 165.153 126.445 165.153 124.236C165.153 122.026 163.361 120.235 161.152 120.235C158.942 120.235 157.151 122.026 157.151 124.236C157.151 126.445 158.942 128.237 161.152 128.237Z" fill="#91BBFF"/>
</g>
<path d="M248.934 106.99C250.943 99.6118 231.326 87.8482 205.118 80.7159C178.911 73.5836 156.038 73.7833 154.03 81.1621C152.022 88.5408 171.639 100.304 197.846 107.437C224.053 114.569 246.926 114.369 248.934 106.99Z" fill="#F7F8F8"/>
</g>
</g>
<defs>
<linearGradient id="paint0_linear" x1="199.78" y1="93.5996" x2="124.716" y2="336.05" gradientUnits="userSpaceOnUse">
<stop offset="0.000926442" stop-color="#CEE6FF" stop-opacity="0.8"/>
<stop offset="1" stop-color="#CEE6FF" stop-opacity="0.1"/>
</linearGradient>
<clipPath id="clip0">
<rect width="292" height="293.089" fill="white" transform="translate(16 38)"/>
</clipPath>
<clipPath id="clip1">
<rect width="292" height="293.089" fill="white" transform="translate(16 38)"/>
</clipPath>
</defs>
</svg>
