<?xml version="1.0" standalone="no"?>
<!DOCTYPE svg PUBLIC "-//W3C//DTD SVG 20010904//EN"
 "http://www.w3.org/TR/2001/REC-SVG-20010904/DTD/svg10.dtd">
<svg version="1.0" xmlns="http://www.w3.org/2000/svg"
 width="700.000000pt" height="700.000000pt" viewBox="0 0 700.000000 700.000000"
 preserveAspectRatio="xMidYMid meet">
<metadata>
Created by potrace 1.14, written by Peter Selinger 2001-2017
</metadata>
<g transform="translate(0.000000,700.000000) scale(0.100000,-0.100000)"
fill="#000000" stroke="none">
<path d="M6790 6370 c-36 -19 -71 -25 -195 -35 -230 -18 -381 -84 -535 -232
l-85 -83 -55 53 c-67 65 -110 96 -175 129 -83 42 -184 69 -280 73 -139 7 -205
16 -266 35 -64 19 -91 20 -134 2 -71 -31 -88 -105 -50 -225 45 -144 114 -258
224 -368 94 -93 178 -153 307 -219 54 -28 106 -55 116 -60 15 -8 14 -18 -8
-118 -43 -200 -116 -399 -213 -580 -31 -57 -48 -79 -55 -72 -6 6 -49 86 -96
177 -85 166 -110 199 -160 208 -36 7 -86 -27 -110 -75 -25 -49 -57 -170 -67
-249 -9 -79 -9 -271 1 -366 4 -44 9 -89 10 -100 3 -33 -23 -98 -52 -128 -50
-52 -252 -171 -397 -233 -147 -64 -270 -85 -465 -79 -80 2 -155 6 -167 9 -11
2 -43 8 -70 11 -39 6 -125 23 -203 40 -38 8 -214 56 -295 80 -49 15 -97 28
-105 30 -8 2 -82 24 -165 50 -155 48 -511 150 -555 159 -14 3 -55 12 -91 20
-36 8 -77 17 -90 20 -13 3 -49 10 -79 16 -30 6 -73 13 -95 16 -22 2 -47 6 -55
9 -89 25 -563 25 -650 0 -8 -2 -31 -6 -50 -9 -118 -18 -264 -63 -409 -126 -41
-18 -92 -43 -113 -56 -20 -13 -40 -24 -44 -24 -18 0 -218 -144 -312 -225 -173
-148 -402 -408 -456 -519 -60 -122 -60 -254 -2 -406 76 -195 187 -392 324
-575 85 -113 291 -323 398 -408 367 -288 839 -476 1339 -533 33 -3 69 -9 80
-12 11 -2 163 -6 338 -7 l317 -3 83 -82 c165 -166 417 -331 497 -325 94 7 166
48 200 115 19 38 37 107 45 175 2 17 6 43 9 59 6 31 19 175 20 221 1 28 6 31
110 72 l109 42 68 -45 c170 -113 435 -206 654 -229 33 -4 73 -9 89 -11 42 -7
131 22 170 56 50 44 80 121 73 190 -7 76 -67 277 -129 433 l-51 130 29 25
c117 98 165 142 284 262 441 443 807 1033 989 1593 65 202 123 439 145 602 3
22 8 56 11 75 3 19 7 62 10 95 3 33 8 92 11 130 4 39 7 157 8 263 l1 193 95
48 c375 186 598 451 626 744 7 73 -9 120 -50 152 -40 31 -105 33 -156 5z"/>
<path d="M2242 5616 c-48 -10 -105 -58 -139 -116 -43 -72 -65 -168 -68 -290
-4 -152 6 -193 49 -214 59 -28 88 -13 143 74 20 30 78 105 129 166 101 120
114 144 114 205 0 114 -113 201 -228 175z"/>
<path d="M1586 5227 c-53 -13 -121 -80 -135 -133 -14 -53 -6 -119 20 -161 12
-19 67 -68 123 -111 132 -100 139 -106 214 -179 54 -53 69 -63 99 -63 48 0 91
45 87 92 -14 185 -76 359 -166 462 -73 84 -153 115 -242 93z"/>
<path d="M2500 5077 c-148 -61 -285 -211 -385 -419 -41 -84 -40 -121 0 -155
27 -24 89 -31 100 -13 14 23 200 99 415 170 36 12 80 31 98 42 76 47 113 158
82 248 -44 130 -174 183 -310 127z"/>
</g>
</svg>
