<svg width="240" height="240" viewBox="0 0 240 240" fill="none" xmlns="http://www.w3.org/2000/svg">
<path d="M120.309 198.953C170.656 198.953 211.47 190.068 211.47 179.107C211.47 168.146 170.656 159.261 120.309 159.261C69.963 159.261 29.1492 168.146 29.1492 179.107C29.1492 190.068 69.963 198.953 120.309 198.953Z" fill="url(#paint0_linear)"/>
<path d="M173.9 177.442C173.635 180.27 167.207 181.979 159.544 181.251C151.881 180.524 145.889 177.646 146.153 174.818C146.418 171.99 152.846 170.281 160.509 171.008C168.172 171.736 174.164 174.614 173.9 177.442Z" fill="url(#paint1_linear)"/>
<path d="M177.141 107.418C137.14 76.5464 143.606 47.5268 118.821 48.1002C109.934 48.3041 102.971 57.5326 102.971 57.5326C102.971 57.5326 76.3664 76.9268 77.0885 110.241C77.6288 135.137 100.854 147.927 119.543 152.353C129.438 154.696 153.557 157.083 153.557 157.083C154.941 157.083 155.575 154.972 154.009 153.842C146.754 148.588 145.315 143.588 150.04 141.311C174.335 129.607 182.885 111.851 177.141 107.418Z" fill="#AECEFC"/>
<path d="M112.867 71.6674C114.051 71.6674 115.012 70.7073 115.012 69.5229C115.012 68.3385 114.051 67.3784 112.867 67.3784C111.683 67.3784 110.723 68.3385 110.723 69.5229C110.723 70.7073 111.683 71.6674 112.867 71.6674Z" fill="white"/>
<path d="M112.867 72.0035C111.5 72.0035 110.386 70.89 110.386 69.5228C110.386 68.1556 111.5 67.042 112.867 67.042C114.234 67.042 115.348 68.1556 115.348 69.5228C115.348 70.89 114.234 72.0035 112.867 72.0035ZM112.867 67.7146C111.869 67.7146 111.053 68.5305 111.053 69.5283C111.053 70.5261 111.869 71.342 112.867 71.342C113.865 71.342 114.681 70.5261 114.681 69.5283C114.681 68.5305 113.865 67.7146 112.867 67.7146Z" fill="#3770E2"/>
<path d="M127.752 71.6674C128.936 71.6674 129.896 70.7073 129.896 69.5229C129.896 68.3385 128.936 67.3784 127.752 67.3784C126.568 67.3784 125.607 68.3385 125.607 69.5229C125.607 70.7073 126.568 71.6674 127.752 71.6674Z" fill="white"/>
<path d="M127.752 72.0035C126.384 72.0035 125.271 70.89 125.271 69.5228C125.271 68.1556 126.384 67.042 127.752 67.042C129.119 67.042 130.232 68.1556 130.232 69.5228C130.232 70.89 129.119 72.0035 127.752 72.0035ZM127.752 67.7146C126.754 67.7146 125.938 68.5305 125.938 69.5283C125.938 70.5261 126.754 71.342 127.752 71.342C128.749 71.342 129.565 70.5261 129.565 69.5283C129.565 68.5305 128.749 67.7146 127.752 67.7146Z" fill="#3770E2"/>
<path d="M137.868 90.874L136.434 92.4121C136.082 92.787 135.569 92.9689 135.062 92.8917L132.983 92.583C131.704 92.3956 130.762 93.7517 131.39 94.8819L132.41 96.7231C132.658 97.1697 132.669 97.7155 132.443 98.173L131.506 100.058C130.927 101.216 131.93 102.534 133.204 102.286L135.271 101.883C135.773 101.784 136.297 101.944 136.66 102.302L138.16 103.774C139.086 104.678 140.646 104.132 140.801 102.848L141.054 100.759C141.115 100.246 141.423 99.7993 141.881 99.5623L143.744 98.5865C144.891 97.9856 144.852 96.3317 143.684 95.786L141.776 94.8984C141.313 94.6834 140.982 94.2479 140.894 93.7407L140.547 91.6679C140.332 90.4054 138.75 89.9258 137.868 90.874Z" fill="#FFE3B2"/>
<path d="M88.2908 102.611C88.2798 102.611 88.2688 102.611 88.2522 102.611C88.0703 102.589 87.938 102.423 87.9545 102.241C90.0494 83.255 99.0629 64.9965 101.18 61.4959C101.274 61.336 101.483 61.2864 101.637 61.3856C101.797 61.4793 101.847 61.6833 101.748 61.8432C99.6472 65.3218 90.6999 83.4535 88.6161 102.318C88.605 102.489 88.4562 102.611 88.2908 102.611Z" fill="#3770E2"/>
<path d="M134.263 74.4787H106.555C106.445 72.5271 105.26 71.2371 105.238 71.2151C105.111 71.0828 104.901 71.0773 104.769 71.2041C104.637 71.3309 104.631 71.5403 104.752 71.6726C104.857 71.7829 107.299 74.4621 104.752 77.9187C104.642 78.0675 104.675 78.277 104.824 78.3873C104.885 78.4314 104.951 78.4534 105.023 78.4534C105.127 78.4534 105.227 78.4038 105.293 78.3156C106.131 77.1745 106.478 76.0995 106.55 75.1457H134.263C134.445 75.1457 134.593 74.9969 134.593 74.815C134.593 74.633 134.445 74.4787 134.263 74.4787Z" fill="#3770E2"/>
<path d="M111.847 142.634V159.3C111.847 159.3 108.523 161.472 108.523 164.724C108.523 166.439 109.912 167.833 111.632 167.833H116.147C118.446 167.833 120.309 165.97 120.309 163.671V143.064" fill="#FFE3E2"/>
<path d="M128.772 142.634V159.3C128.772 159.3 132.096 161.472 132.096 164.724C132.096 166.439 130.707 167.833 128.987 167.833H124.472C122.173 167.833 120.309 165.97 120.309 163.671V143.064" fill="#FFE3E2"/>
<path d="M131.037 167.839H126.34C126.34 167.839 126.203 163.092 131.357 162.089C131.026 160.06 129.086 159.261 129.086 159.261C129.086 159.261 122.388 160.253 122.393 167.839H121.368C120.783 167.839 120.309 168.313 120.309 168.897C120.309 168.313 119.835 167.839 119.251 167.839H118.226C118.231 160.253 111.533 159.261 111.533 159.261C111.533 159.261 109.592 160.06 109.262 162.089C114.416 163.092 114.278 167.839 114.278 167.839H109.581C108.997 167.839 108.523 168.313 108.523 168.897V169.063C108.523 169.647 108.997 170.121 109.581 170.121H119.245C119.83 170.121 120.304 169.647 120.304 169.063C120.304 169.647 120.778 170.121 121.362 170.121H131.026C131.611 170.121 132.085 169.647 132.085 169.063V168.897C132.096 168.313 131.622 167.839 131.037 167.839Z" fill="#91BBFF"/>
<path d="M120.309 163.594C120.127 163.594 119.978 163.445 119.978 163.263V143.478C119.978 143.296 120.127 143.147 120.309 143.147C120.491 143.147 120.64 143.296 120.64 143.478V163.263C120.64 163.445 120.491 163.594 120.309 163.594Z" fill="#D38989"/>
<path d="M160.713 46.2808H148.8C145.944 46.2808 143.607 48.6182 143.607 51.4739V57.2182C143.607 59.7376 145.42 61.849 147.807 62.3121V66.0332C147.807 66.5129 148.375 66.772 148.739 66.4577L153.414 62.4058H160.713C163.569 62.4058 165.906 60.0684 165.906 57.2127V51.4739C165.906 48.6182 163.569 46.2808 160.713 46.2808Z" fill="#CEE6FF"/>
<path d="M149.279 56.143C150.217 56.143 150.977 55.3828 150.977 54.445C150.977 53.5073 150.217 52.7471 149.279 52.7471C148.342 52.7471 147.581 53.5073 147.581 54.445C147.581 55.3828 148.342 56.143 149.279 56.143Z" fill="white"/>
<path d="M154.974 56.143C155.912 56.143 156.672 55.3828 156.672 54.445C156.672 53.5073 155.912 52.7471 154.974 52.7471C154.037 52.7471 153.276 53.5073 153.276 54.445C153.276 55.3828 154.037 56.143 154.974 56.143Z" fill="white"/>
<path d="M160.674 56.143C161.612 56.143 162.372 55.3828 162.372 54.445C162.372 53.5073 161.612 52.7471 160.674 52.7471C159.737 52.7471 158.976 53.5073 158.976 54.445C158.976 55.3828 159.737 56.143 160.674 56.143Z" fill="white"/>
<path d="M120.309 143.428C113.948 143.428 109.014 142.855 104.785 141.625C104.609 141.576 104.504 141.388 104.559 141.212C104.609 141.036 104.796 140.936 104.973 140.986C109.14 142.193 114.014 142.761 120.309 142.761C126.605 142.761 131.478 142.199 135.646 140.986C135.823 140.936 136.01 141.036 136.06 141.212C136.109 141.388 136.01 141.576 135.834 141.625C131.605 142.86 126.671 143.428 120.309 143.428Z" fill="#3770E2"/>
<path opacity="0.5" d="M42.2973 97.0867C44.9065 97.0867 47.0218 94.9715 47.0218 92.3622C47.0218 89.7529 44.9065 87.6377 42.2973 87.6377C39.688 87.6377 37.5728 89.7529 37.5728 92.3622C37.5728 94.9715 39.688 97.0867 42.2973 97.0867Z" fill="#D6EDFC"/>
<path opacity="0.5" d="M180.267 89.4134C182.636 89.4134 184.556 87.4932 184.556 85.1244C184.556 82.7557 182.636 80.8354 180.267 80.8354C177.898 80.8354 175.978 82.7557 175.978 85.1244C175.978 87.4932 177.898 89.4134 180.267 89.4134Z" fill="#D6EDFC"/>
<path opacity="0.5" d="M60.1366 111.338C62.1004 111.338 63.6924 109.746 63.6924 107.782C63.6924 105.819 62.1004 104.227 60.1366 104.227C58.1728 104.227 56.5808 105.819 56.5808 107.782C56.5808 109.746 58.1728 111.338 60.1366 111.338Z" fill="#D6EDFC"/>
<path opacity="0.5" d="M66.4379 72.3289C69.9179 72.3289 72.7391 69.5078 72.7391 66.0277C72.7391 62.5477 69.9179 59.7266 66.4379 59.7266C62.9578 59.7266 60.1367 62.5477 60.1367 66.0277C60.1367 69.5078 62.9578 72.3289 66.4379 72.3289Z" fill="#D6EDFC"/>
<path d="M57.1214 127.314C52.3914 127.314 52.5237 134.867 53.8357 138.985C55.1478 143.103 49.6349 150.093 53.0474 155.589C56.4653 161.08 50.1587 163.577 57.1214 174.068" fill="#D6EDE8"/>
<path d="M57.1215 127.314C61.8515 127.314 61.7192 134.867 60.4071 138.985C59.0951 143.103 64.6079 150.093 61.1954 155.589C57.7775 161.08 64.0842 163.577 57.1215 174.068" fill="#D6EDE8"/>
<path d="M71.5094 142.369C68.3009 142.369 68.3892 147.491 69.2822 150.28C70.1753 153.075 66.4321 157.811 68.7475 161.537C71.0629 165.264 66.7849 166.956 71.5094 174.062" fill="#D6EDE8"/>
<path d="M71.5094 142.369C74.7179 142.369 74.6297 147.491 73.7366 150.28C72.8435 153.075 76.5867 157.811 74.2713 161.537C71.9559 165.264 76.2339 166.956 71.5094 174.062" fill="#D6EDE8"/>
<path d="M182.141 141.234C178.933 141.234 179.021 146.355 179.914 149.145C180.807 151.934 177.064 156.675 179.379 160.402C181.695 164.129 177.417 165.821 182.141 172.927" fill="#D6EDE8"/>
<path d="M182.142 141.234C185.35 141.234 185.262 146.355 184.369 149.145C183.476 151.934 187.219 156.675 184.904 160.402C182.588 164.129 186.866 165.821 182.142 172.927" fill="#D6EDE8"/>
<path d="M91.1907 182.211C95.6561 181.511 97.3705 183.247 97.3705 183.247C100.8 183.099 100.8 184.548 100.8 184.548C94.0794 187.933 86.4662 187.217 86.4662 187.217C86.4662 187.217 80.5399 184.554 84.4319 180.772C84.4319 180.772 85.6723 180.061 86.5378 181.009C86.5323 181.004 89.9889 180.706 91.1907 182.211Z" fill="url(#paint2_linear)"/>
<path d="M92.6347 176.748C96.3393 174.603 97.5301 177.762 97.5301 177.762C100.331 176.897 100.165 179.763 100.165 179.763C94.3216 187.602 86.4658 187.217 86.4658 187.217C86.4658 187.217 79.3983 185.491 82.9927 177.332C82.9927 177.332 85.9752 174.862 87.3975 176.329C87.392 176.323 91.8353 173.964 92.6347 176.748Z" fill="white"/>
<path d="M85.9311 182.559L85.4019 182.509C85.7326 178.97 87.2211 176.329 87.2762 176.219L87.4637 176.362C87.4471 176.39 86.2508 179.124 85.9311 182.559Z" fill="#EBF0FE"/>
<path d="M92.2877 183.6L91.99 183.159C95.7938 180.601 97.4201 177.751 97.4367 177.724L97.6296 177.817C97.569 177.939 96.2183 180.954 92.2877 183.6Z" fill="#EBF0FE"/>
<path d="M89.1343 183.06L88.6768 182.784L92.5578 176.704L92.7507 176.814L89.1343 183.06Z" fill="#EBF0FE"/>
<defs>
<linearGradient id="paint0_linear" x1="120.308" y1="158.415" x2="120.308" y2="211.426" gradientUnits="userSpaceOnUse">
<stop offset="0.000926442" stop-color="#CEE6FF" stop-opacity="0.8"/>
<stop offset="0.00752014" stop-color="#CEE6FF" stop-opacity="0.7935"/>
<stop offset="0.8066" stop-color="#CEE6FF" stop-opacity="0"/>
</linearGradient>
<linearGradient id="paint1_linear" x1="161.106" y1="169.071" x2="157.557" y2="192.289" gradientUnits="userSpaceOnUse">
<stop offset="0.000926442" stop-color="#CEE6FF" stop-opacity="0.8"/>
<stop offset="0.1326" stop-color="#CEE6FF" stop-opacity="0.6945"/>
<stop offset="1" stop-color="#CEE6FF" stop-opacity="0"/>
</linearGradient>
<linearGradient id="paint2_linear" x1="98.9684" y1="181.214" x2="85.0676" y2="184.857" gradientUnits="userSpaceOnUse">
<stop offset="0.000926442" stop-color="#CEE6FF" stop-opacity="0.8"/>
<stop offset="0.8588" stop-color="#CEE6FF" stop-opacity="0.1131"/>
<stop offset="1" stop-color="#CEE6FF" stop-opacity="0"/>
</linearGradient>
</defs>
</svg>
