<?xml version="1.0" standalone="no"?>
<!DOCTYPE svg PUBLIC "-//W3C//DTD SVG 20010904//EN"
 "http://www.w3.org/TR/2001/REC-SVG-20010904/DTD/svg10.dtd">
<svg version="1.0" xmlns="http://www.w3.org/2000/svg"
 width="512.000000pt" height="512.000000pt" viewBox="0 0 512.000000 512.000000"
 preserveAspectRatio="xMidYMid meet">
<metadata>
Created by potrace 1.14, written by Peter Selinger 2001-2017
</metadata>
<g transform="translate(0.000000,512.000000) scale(0.100000,-0.100000)"
fill="#000000" stroke="none">
<path d="M4967 4659 c-26 -10 -83 -22 -125 -24 -42 -3 -90 -8 -107 -11 -98
-16 -222 -81 -301 -159 l-62 -60 -48 44 c-117 106 -190 133 -394 146 -47 3
-106 12 -131 20 -51 17 -75 16 -105 -5 -52 -37 -54 -91 -7 -209 62 -157 198
-294 383 -386 41 -21 76 -39 78 -40 2 -2 -4 -41 -13 -86 -23 -114 -76 -262
-137 -383 -59 -117 -50 -121 -133 49 -63 128 -94 156 -146 135 -35 -15 -53
-46 -74 -127 -28 -108 -30 -139 -22 -424 2 -55 -2 -71 -23 -101 -13 -20 -38
-43 -55 -52 -16 -9 -43 -25 -60 -36 -66 -43 -220 -112 -293 -131 -83 -22 -230
-29 -340 -16 -133 15 -319 62 -697 177 -245 75 -474 131 -590 146 -22 3 -65 9
-95 14 -60 9 -376 6 -425 -4 -16 -4 -43 -9 -60 -12 -156 -30 -362 -121 -509
-226 -84 -59 -267 -230 -330 -308 -175 -217 -187 -311 -69 -559 131 -275 318
-498 570 -678 87 -62 106 -73 240 -139 292 -142 616 -208 1004 -203 l186 2 54
-55 c30 -30 86 -79 124 -109 129 -100 211 -141 269 -133 82 10 137 71 151 167
3 27 8 58 11 70 2 11 6 59 10 106 3 47 9 89 13 92 3 3 38 18 78 33 l71 27 88
-51 c115 -66 217 -104 340 -129 190 -37 244 -33 300 23 36 36 55 90 47 138
-10 69 -72 263 -117 369 l-15 36 42 34 c148 119 372 365 514 564 297 418 489
921 520 1365 3 47 7 92 9 100 1 8 3 80 3 160 l1 146 67 33 c217 107 382 270
436 432 23 68 31 155 17 188 -21 51 -77 67 -143 40z"/>
<path d="M1604 4091 c-79 -48 -119 -158 -116 -318 1 -79 12 -110 45 -122 34
-13 56 -1 89 48 17 25 64 85 104 133 90 108 100 146 58 217 -35 60 -119 79
-180 42z"/>
<path d="M1130 3809 c-44 -27 -57 -44 -71 -93 -14 -51 9 -114 53 -147 69 -52
175 -139 217 -178 49 -46 80 -52 112 -20 19 19 20 28 14 86 -12 114 -64 240
-129 311 -52 58 -139 76 -196 41z"/>
<path d="M1845 3723 c-26 -7 -113 -64 -150 -99 -64 -61 -165 -226 -171 -279
-1 -14 8 -35 21 -49 27 -29 43 -27 140 22 33 17 110 47 170 67 134 45 168 64
191 113 52 110 -24 234 -143 231 -21 -1 -47 -4 -58 -6z"/>
</g>
</svg>
